<svg width="96" height="29" viewBox="0 0 96 29" fill="none" xmlns="http://www.w3.org/2000/svg">
    <path d="M12.5566 3.46932H6.93776C6.93776 5.36256 6.78387 6.8299 6.47966 7.87136C6.17188 8.91282 5.78536 9.65723 5.31652 10.1153C4.84768 10.5698 4.35738 10.8418 3.85275 10.9277C3.34813 11.0136 2.88645 11.0566 2.47488 11.0566H1.40479V8.51556H2.36751C2.43909 8.50125 2.51067 8.47262 2.58224 8.42967C2.65382 8.38672 2.73256 8.31872 2.81845 8.22567C2.90435 8.13262 2.99382 8.00378 3.08687 7.84273C3.17992 7.6781 3.27297 7.47053 3.36602 7.21285C3.45907 6.95517 3.54855 6.6438 3.63444 6.2716C3.72033 5.90297 3.79907 5.45919 3.87064 4.94741C3.94222 4.43562 3.99591 3.84869 4.0317 3.18659C4.06749 2.52449 4.08538 1.77292 4.08538 0.931885H15.7275V11.0602H12.5674V3.46932H12.5566Z" fill="#EC5D2B" stroke="#2F2F2F"/>
    <path d="M25.6088 5.73468L24.6246 4.17428H21.0386L23.1537 0.928223H25.9739L32.5769 11.0565H28.837L26.9366 8.04307H21.9154L20.058 11.0565H16.5757L20.0365 5.73826H25.6088V5.73468Z" fill="#EC5D2B" stroke="#2F2F2F"/>
    <path d="M33.6434 0.928223H44.9671V3.46924H37.0828V11.0529H33.6434V0.928223Z" fill="#EC5D2B" stroke="#2F2F2F"/>
    <path d="M46.4595 11.0531V0.924805H60.6033V11.0531H46.4595ZM57.3787 3.4694H49.6876V8.51206H57.3787V3.4694Z" fill="#EC5D2B" stroke="#2F2F2F"/>
    <path d="M62.0992 8.51206H63.5308C63.9137 8.07186 64.2358 7.57081 64.4935 7.01608C64.7512 6.46135 64.9731 5.69189 65.1664 4.7077C65.3596 3.7235 65.4562 2.46373 65.4562 0.924805H76.7154V8.50848H78.2544V12.8246H75.155V11.0531H65.1986V12.8246H62.0992V8.51206ZM73.5517 8.51206V3.4694H68.4446C68.4446 4.63612 68.3086 5.59168 68.0402 6.33251C67.7682 7.07335 67.3566 7.79986 66.8019 8.51206H73.5517Z" fill="#EC5D2B" stroke="#2F2F2F"/>
    <path d="M88.0355 5.73468L87.0513 4.17428H83.4617L85.5768 0.928223H88.3969L95 11.0565H91.2601L89.3597 8.04307H84.3385L82.481 11.0565H78.9988L82.4596 5.73826H88.0355V5.73468Z" fill="#EC5D2B" stroke="#2F2F2F"/>
    <path d="M10.9533 21.4603V20.6479H4.8441V25.6905H10.9747V24.3663H14.4141V28.2315H1.40479V18.1033H14.3962V21.4567H10.9533V21.4603Z" fill="#EC5D2B" stroke="#2F2F2F"/>
    <path d="M25.3332 24.1945H19.9935V25.6905H29.0946V28.2315H16.7689V18.1033H28.9909V20.6443H19.9971V21.9255H25.3368V24.1945H25.3332Z" fill="#EC5D2B" stroke="#2F2F2F"/>
    <path d="M40.9515 22.2942V20.648H31.4424V18.1069H41.4633C42.3043 18.1069 43.0022 18.3932 43.557 18.9623C44.1117 19.5313 44.3908 20.2006 44.3908 20.97V21.9113C44.3908 22.6092 44.2119 23.1639 43.8576 23.5791C43.5033 23.9906 43.0845 24.2877 42.6085 24.4666C42.1325 24.6456 41.7138 24.735 41.3595 24.735H34.8853V28.2388H31.446V22.2978H40.9515V22.2942Z" fill="#EC5D2B" stroke="#2F2F2F"/>
    <path d="M45.9906 18.1069H56.2871C56.7416 18.1069 57.1782 18.1928 57.5898 18.3646C58.0014 18.5364 58.3378 18.8048 58.5955 19.177C58.8531 19.5492 58.9784 20.0395 58.9784 20.6515V21.4639C58.9784 21.7073 58.9319 21.9256 58.8388 22.126C58.7458 22.3265 58.642 22.4982 58.531 22.6378C58.4165 22.781 58.2662 22.9241 58.0837 23.0637C58.2841 23.2212 58.4487 23.3751 58.574 23.5218C58.7028 23.6721 58.8174 23.8546 58.914 24.0658C59.0142 24.2805 59.0643 24.5275 59.0643 24.8138V25.6906C59.0643 26.2453 58.9283 26.7142 58.6599 27.09C58.3879 27.4693 58.0479 27.7521 57.6327 27.9453C57.2212 28.1386 56.7846 28.2352 56.33 28.2352H45.9906V18.1069ZM55.6071 21.9292V20.648H49.1114V21.9292H55.6071ZM55.6071 25.6906V24.1946H49.1114V25.6906H55.6071Z" fill="#EC5D2B" stroke="#2F2F2F"/>
    <path d="M64.2572 24.4523L72.9325 18.1069H75.4306V28.2352H72.2668V21.8684L63.5916 28.2352H61.0935V18.1069H64.2572V24.4523Z" fill="#EC5D2B" stroke="#2F2F2F"/>
    <path d="M87.1193 21.675V20.6479H81.0101V25.6905H87.1408V24.1516H90.3654V28.2315H77.782V18.1033H90.3654V21.6714H87.1193V21.675Z" fill="#EC5D2B" stroke="#2F2F2F"/>
</svg>
