<svg width="65" height="55" viewBox="0 0 65 55" fill="none" xmlns="http://www.w3.org/2000/svg">
    <path d="M43.6739 25.2965L43.6737 25.2962C43.2546 24.6244 42.7189 24.0297 42.0768 23.476L43.6739 25.2965ZM43.6739 25.2965C43.7558 25.4275 43.8349 25.5583 43.9168 25.694C43.9196 25.6986 43.9223 25.7031 43.9251 25.7077L43.9281 25.7193C43.935 25.7456 43.9421 25.7719 43.9486 25.7955L43.9488 25.7962C43.9554 25.8204 43.9614 25.8423 43.9671 25.8642C43.9787 25.9083 43.9873 25.9446 43.9931 25.9768C44.0041 26.0373 44.0006 26.0597 44.0006 26.0604C43.9447 26.2693 43.9275 26.4729 43.9138 26.6352C43.9125 26.6511 43.9112 26.6667 43.9099 26.6818C43.84 27.4438 43.704 28.2008 43.5164 28.9473C43.3285 29.6908 43.0912 30.4246 42.8157 31.1449C42.5462 31.8471 42.2407 32.5352 41.9066 33.2134C41.5901 33.8523 41.2498 34.4795 40.8877 35.0929L40.8875 35.0932C40.5603 35.6485 40.2173 36.1936 39.8588 36.7265L39.8587 36.7266C39.5569 37.1753 39.2435 37.6197 38.9204 38.0537L38.9195 38.0549C38.6782 38.3813 38.4288 38.7039 38.1735 39.0206L38.1719 39.0226C38.1071 39.1038 38.0416 39.1845 37.9756 39.2645L37.9251 39.2131L35.1705 36.404C35.9302 35.1478 36.4534 33.7645 36.8888 32.4172L36.8889 32.4169C37.4159 30.783 37.8167 29.1128 38.1512 27.4424L38.1513 27.4421C38.5267 25.5612 38.8133 23.6657 39.037 21.7652M43.6739 25.2965L39.037 21.7652M39.037 21.7652C40.159 22.1547 41.1976 22.7187 42.0766 23.4758L39.037 21.7652Z" fill="#EC5D2B" stroke="#2F2F2F"/>
    <path d="M33.092 0.749073C33.1604 0.698753 33.2349 0.644407 33.3215 0.640382L28.8893 5.31008C30.0245 3.53479 31.4113 2.01512 33.092 0.749073ZM33.092 0.749073L33.3358 1.0727M33.092 0.749073L33.3331 1.07696L33.2947 1.1376C33.2671 1.13374 33.2502 1.1267 33.2476 1.12557C33.2468 1.12525 33.2465 1.12508 33.2465 1.1251C33.2466 1.12515 33.2491 1.12634 33.2546 1.12945C33.2625 1.13392 33.2724 1.13989 33.288 1.14974C33.3067 1.16159 33.3254 1.17347 33.344 1.18538C33.3595 1.17362 33.375 1.16189 33.3905 1.15018M33.3358 1.0727L33.3412 1.06421L33.3416 1.06352L33.5549 0.726932L33.3417 1.06612L33.3413 1.06682L33.3368 1.07401M33.3358 1.0727L33.3368 1.07401M33.3358 1.0727L33.3341 1.0783M33.3905 1.15018C33.407 1.13807 33.417 1.13079 33.4261 1.12465C33.4335 1.11959 33.4366 1.11779 33.4366 1.11778L33.4363 1.11798C33.4347 1.11882 33.4156 1.12908 33.383 1.13535M33.3905 1.15018C33.3913 1.1496 33.3921 1.14902 33.3928 1.14844L33.383 1.13535M33.3905 1.15018L33.383 1.13535M33.383 1.13535L33.3425 1.08158L33.3419 1.08088L33.3368 1.07401M33.3368 1.07401L33.3341 1.0783M33.3341 1.0783L33.2966 1.13787C33.3103 1.13967 33.3264 1.14068 33.3447 1.13984C33.3449 1.13983 33.3451 1.13982 33.3452 1.13982C33.3567 1.13926 33.3673 1.13804 33.3768 1.13645L33.3429 1.09028L33.3423 1.08955L33.3341 1.0783ZM33.5927 6.77401C33.5355 6.86307 33.4786 6.95233 33.4219 7.04178L33.1902 6.50529L33.5321 6.84716C33.5472 6.83204 33.5609 6.81648 33.5731 6.80079C33.5804 6.79149 33.5869 6.78251 33.5927 6.77401ZM33.5927 6.77401C33.5967 6.7682 33.6003 6.76263 33.6036 6.75733C33.6116 6.74448 33.6177 6.73355 33.6216 6.72625L33.6223 6.72474C33.6187 6.73154 33.613 6.74196 33.6052 6.75431C33.6033 6.75737 33.6013 6.76053 33.5992 6.76378M33.5927 6.77401C33.5949 6.77061 33.5971 6.76722 33.5992 6.76383L33.5992 6.76378M33.5992 6.76378L33.2067 6.51169M33.5992 6.76378C33.5925 6.77386 33.5848 6.7848 33.5758 6.79626C33.564 6.81145 33.5507 6.8265 33.5361 6.84112L33.2067 6.51169M33.2067 6.51169L33.1826 6.48757M33.2067 6.51169L33.1877 6.49951L33.1826 6.48757M33.1826 6.48757L33.1755 6.49061L33.1745 6.49104L32.7236 6.68582L32.8585 6.99823C32.9643 6.8293 33.071 6.66109 33.1785 6.49361C33.1795 6.4926 33.1801 6.4916 33.1806 6.49059C33.1811 6.48958 33.1816 6.48858 33.1826 6.48757ZM21.8042 24.792C21.9737 24.7594 22.1432 24.7269 22.3127 24.6945C22.3258 24.52 22.3401 24.3466 22.3556 24.1772C22.1854 24.2097 22.0152 24.2424 21.8449 24.275C21.8301 24.4455 21.8166 24.6188 21.8042 24.792ZM41.609 12.9759C40.4357 12.3697 39.2163 12.0743 38.2023 11.9336C37.4777 11.8331 36.8476 11.8101 36.3973 11.8124C36.257 11.8131 36.1339 11.8162 36.0305 11.8202L33.6416 6.28932L33.3496 5.61339L32.829 6.13402C32.8199 6.14317 32.8113 6.15247 32.8032 6.16188L32.7869 6.17811L32.7652 6.21199C32.7625 6.21607 32.7599 6.22003 32.7575 6.22385C32.7571 6.22444 32.7568 6.22504 32.7564 6.22562C30.3107 10.0337 28.2936 14.242 27.4892 18.7729L27.4892 18.7729C27.3091 19.7877 27.1796 20.8201 27.122 21.8552C27.1135 22.0059 27.1184 22.1746 27.1227 22.3247L27.1235 22.3508C27.1283 22.517 27.132 22.6714 27.1248 22.8178C27.1115 23.0894 27.063 23.2273 27.0124 23.295C27.0042 23.2969 26.9941 23.299 26.9818 23.3013C26.9475 23.3077 26.9109 23.3128 26.8618 23.3196L26.8602 23.3198L26.8574 23.3202C26.8148 23.3262 26.7555 23.3344 26.6993 23.3461C26.3136 23.4243 25.931 23.4959 25.544 23.5684C25.3259 23.6093 25.1064 23.6504 24.8841 23.6931C24.8841 23.6931 24.8841 23.6931 24.8841 23.6931L24.9784 24.1841L41.609 12.9759ZM26.9891 23.3215C27.0147 23.2991 27.0351 23.2895 27.0401 23.2874L27.3193 23.697L26.9891 23.3215ZM33.6967 1.41897C33.6968 1.419 33.6968 1.41904 33.6969 1.41908L33.979 1.00759L33.6967 1.41897Z" fill="#EC5D2B" stroke="#2F2F2F"/>
    <path d="M49.7165 21.6282L49.7164 21.628C46.6905 18.2239 42.5756 15.6996 38.2143 14.396L38.214 14.3959C36.7205 13.9484 35.2033 13.6865 33.6493 13.6357L33.6492 13.6357C33.2126 13.6213 32.7799 13.6471 32.3223 13.6765C31.5608 14.9881 31.0671 16.384 30.7947 17.9265L49.7165 21.6282ZM49.7165 21.6282C50.4757 22.4815 51.1583 23.4032 51.734 24.3848L51.7341 24.385C52.704 26.0374 53.3752 27.873 53.4247 29.7507L53.4252 29.7731C53.4295 29.9323 53.4342 30.1097 53.4074 30.2547C53.3922 30.2458 53.3748 30.2354 53.3546 30.2231C52.8879 29.9349 52.4241 29.6445 51.9605 29.3542C50.2416 28.2777 48.5256 27.2031 46.6725 26.2522C46.6718 26.2507 46.6711 26.2491 46.6703 26.2474C46.6678 26.2419 46.665 26.2357 46.6619 26.2289C46.6477 26.1977 46.6275 26.153 46.6032 26.104L46.6025 26.1027M49.7165 21.6282L46.6025 26.1027M46.6025 26.1027C44.0617 21.0086 38.6786 18.3024 33.2357 17.9928L46.6025 26.1027Z" fill="#EC5D2B" stroke="#2F2F2F"/>
    <path d="M21.0514 53.1121C21.0514 53.1121 28.9114 49.5977 29.6299 48.8268C35.0202 48.7604 39.9516 48.2894 46.7871 37.3096C51.0763 41.7096 51.0763 41.7096 51.0763 41.7096C51.0763 41.7096 47.7492 49.3663 41.3163 52.3995C34.8834 55.4328 28.2089 55.7287 21.0514 53.1121Z" fill="#EC5D2B"/>
    <path d="M36.3004 25.6636C36.2843 25.575 36.2621 25.4864 36.238 25.3999C36.2198 25.3375 36.2057 25.257 36.1715 25.2026C36.1212 25.1201 35.9823 25.1221 35.9038 25.1121C34.1688 24.8766 32.3955 24.8202 30.6464 24.9027C27.1723 25.0658 23.7083 25.8165 20.5904 27.2275C20.5482 27.2476 20.5079 27.2718 20.4677 27.302C20.2241 28.6506 20.0248 30.0132 19.896 31.3719C19.8719 31.6295 19.8538 31.8892 19.8457 32.1468C21.2345 31.3739 22.9192 31.0901 24.4973 30.7982C26.5262 30.4238 28.5813 30.1743 30.6484 30.0495C31.0047 30.0273 31.365 30.0474 31.7212 30.0535C32.3392 30.0615 32.9591 30.0696 33.577 30.0656C33.6757 30.0656 33.7743 30.0636 33.8729 30.0636C34.2211 30.0595 34.5714 30.0334 34.9196 30.0495C35.0142 30.0535 35.0967 30.0515 35.1732 29.9871C35.2839 29.8945 35.3664 29.7516 35.4469 29.6328C35.8052 29.1014 36.0689 28.5036 36.2219 27.8756C36.3748 27.2517 36.4211 26.6015 36.3487 25.9615C36.3346 25.8648 36.3185 25.7642 36.3004 25.6636Z" fill="#EC5D2B"/>
    <path d="M36.7452 46.1841C37.4477 45.7493 38.0394 45.1857 38.5748 44.5577C38.6755 44.439 38.7721 44.3182 38.8687 44.1954C35.2618 40.8481 29.1871 31.8912 28.5853 30.9995C28.382 31.0196 28.1787 31.0438 27.9774 31.074L25.707 31.6718C25.4393 31.7704 25.1756 31.8731 24.916 31.9838C24.3423 32.2273 23.821 32.5494 23.2916 32.8634C24.5798 36.1342 31.3026 44.7792 33.3395 47.3576C34.5271 47.1744 35.7126 46.8221 36.7452 46.1841Z" fill="#EC5D2B"/>
    <path d="M45.3077 28.0227C45.3077 28.0227 44.6515 31.9094 43.7618 33.2198C47.2742 35.14 54.6229 40.1478 57.1047 47.7804C49.8948 48.1547 49.8948 48.1547 49.8948 48.1547C49.8948 48.1547 46.2517 51.5262 44.4683 52.8365C49.3796 53.4927 57.0121 53.7725 64.1274 51.2444C62.5352 46.9833 60.3815 36.0759 47.4131 29.3813C45.3077 28.0227 45.3077 28.0227 45.3077 28.0227Z" fill="#EC5D2B"/>
    <path d="M10.5204 33.2197C10.5204 33.2197 10.4258 36.5429 11.0357 39.5641C7.33618 46.6109 7.33617 46.6109 7.33617 46.6109C7.33617 46.6109 12.9539 48.2493 28.5209 42.9597C30.9785 46.5183 30.9785 46.5183 30.9785 46.5183C30.9785 46.5183 13.9362 56.3508 0.500709 50.1695C-0.435244 49.2779 6.77662 36.3094 10.5204 33.2197Z" fill="#EC5D2B"/>
    <path d="M19.9422 43.563C19.7273 43.2382 19.5265 42.9014 19.3419 42.5554C18.7028 41.5262 18.2248 40.1718 17.9781 39.4727C17.9419 39.3701 17.9106 39.2815 17.8846 39.2102C16.3144 34.9119 17.1289 30.0586 19.485 26.2519C19.5258 26.1858 19.5781 26.1136 19.615 26.0628C19.6251 26.049 19.6339 26.0368 19.6411 26.0267C19.6778 25.9751 19.6968 25.9444 19.7067 25.9251C19.7073 25.9197 19.7081 25.9114 19.7088 25.8996C19.7099 25.878 19.7103 25.855 19.7109 25.8196L19.711 25.8191C19.7115 25.788 19.7122 25.745 19.715 25.701C19.7151 25.7006 19.7151 25.7003 19.7151 25.6999L20.2141 25.7321C20.2322 25.4302 20.2543 25.1303 20.2785 24.8304C20.4033 23.3248 20.6046 21.8273 20.8823 20.3438L19.9422 43.563ZM19.9422 43.563C19.136 43.8298 18.1435 44.1581 17.2817 44.4432L15.864 44.912L15.6929 44.9686L13.6484 40.7935C13.297 39.8727 13.0297 38.9179 12.8431 37.9482L19.9422 43.563ZM12.5157 34.9118L12.5157 34.9121C12.5452 35.9317 12.6512 36.9475 12.8431 37.9479L12.5157 34.9118ZM12.5157 34.9118C12.49 34.0433 12.5038 33.1648 12.5573 32.2984C12.8901 26.9057 15.0764 21.2036 19.665 18.2231L12.5157 34.9118Z" fill="#EC5D2B" stroke="#2F2F2F"/>
</svg>
