<svg width="24" height="24" viewBox="0 0 24 24" fill="none" xmlns="http://www.w3.org/2000/svg">
    <path d="M15.59 12.4002V16.4702C15.59 16.8302 15.55 17.1702 15.46 17.4802C15.09 18.9502 13.87 19.8702 12.19 19.8702H9.47L6.45 21.8802C6.34876 21.9495 6.23046 21.9898 6.10796 21.9965C5.98547 22.0033 5.86346 21.9763 5.75521 21.9186C5.64695 21.8609 5.5566 21.7746 5.49398 21.6691C5.43135 21.5636 5.39885 21.4429 5.4 21.3202V19.8702C4.38 19.8702 3.53 19.5302 2.94 18.9402C2.34 18.3402 2 17.4902 2 16.4702V12.4002C2 10.5002 3.18 9.19024 5 9.02024C5.13 9.01024 5.26 9.00024 5.4 9.00024H12.19C14.23 9.00024 15.59 10.3602 15.59 12.4002Z" fill="#EC5D2B"/>
    <path d="M17.75 15.6002C19.02 15.6002 20.09 15.1802 20.83 14.4302C21.58 13.6902 22 12.6202 22 11.3502V6.25024C22 3.90024 20.1 2.00024 17.75 2.00024H9.25C6.9 2.00024 5 3.90024 5 6.25024V7.00024C5 7.28024 5.22 7.50024 5.5 7.50024H12.19C14.9 7.50024 17.09 9.69024 17.09 12.4002V15.1002C17.09 15.3802 17.31 15.6002 17.59 15.6002H17.75Z" fill="#EC5D2B"/>
</svg>
