<svg width="24" height="24" viewBox="0 0 24 24" fill="none" xmlns="http://www.w3.org/2000/svg">
    <path d="M20.5 10.1905H17.61C15.24 10.1905 13.31 8.26049 13.31 5.89049V3.00049C13.31 2.45049 12.86 2.00049 12.31 2.00049H8.07C4.99 2.00049 2.5 4.00049 2.5 7.57049V16.4305C2.5 20.0005 4.99 22.0005 8.07 22.0005H15.93C19.01 22.0005 21.5 20.0005 21.5 16.4305V11.1905C21.5 10.6405 21.05 10.1905 20.5 10.1905Z" fill="#EC5D2B"/>
    <path d="M15.8001 2.21048C15.3901 1.80048 14.6801 2.08048 14.6801 2.65048V6.14048C14.6801 7.60048 15.9201 8.81048 17.4301 8.81048C18.3801 8.82048 19.7001 8.82048 20.8301 8.82048C21.4001 8.82048 21.7001 8.15048 21.3001 7.75048C19.8601 6.30048 17.2801 3.69048 15.8001 2.21048Z" fill="#EC5D2B"/>
</svg>
