<svg width="18" height="22" viewBox="0 0 18 22" fill="none" xmlns="http://www.w3.org/2000/svg">
    <path d="M17.621 7.45024C16.571 2.83024 12.5409 0.750244 9.00095 0.750244H8.99095C5.46095 0.750244 1.42095 2.82024 0.37095 7.44024C-0.79905 12.6002 2.36095 16.9702 5.22095 19.7202C6.23467 20.7014 7.59015 21.2501 9.00095 21.2502C10.3609 21.2502 11.7209 20.7402 12.7709 19.7202C15.6309 16.9702 18.791 12.6102 17.621 7.45024ZM9.00095 12.4602C8.58729 12.4602 8.17767 12.3788 7.7955 12.2205C7.41332 12.0622 7.06607 11.8301 6.77356 11.5376C6.48106 11.2451 6.24903 10.8979 6.09073 10.5157C5.93243 10.1335 5.85095 9.72391 5.85095 9.31024C5.85095 8.89658 5.93243 8.48697 6.09073 8.10479C6.24903 7.72262 6.48106 7.37536 6.77356 7.08286C7.06607 6.79035 7.41332 6.55833 7.7955 6.40002C8.17767 6.24172 8.58729 6.16024 9.00095 6.16024C9.83638 6.16024 10.6376 6.49212 11.2283 7.08286C11.8191 7.6736 12.1509 8.47481 12.1509 9.31024C12.1509 10.1457 11.8191 10.9469 11.2283 11.5376C10.6376 12.1284 9.83638 12.4602 9.00095 12.4602Z" fill="#EC5D2B"/>
</svg>
