<svg width="168" height="55" viewBox="0 0 168 55" fill="none" xmlns="http://www.w3.org/2000/svg">
    <path d="M85.1389 15.8292H79.52C79.52 17.7224 79.3661 19.1898 79.0619 20.2312C78.7542 21.2727 78.3676 22.0171 77.8988 22.4752C77.43 22.9297 76.9397 23.2017 76.435 23.2876C75.9304 23.3735 75.4687 23.4164 75.0572 23.4164H73.9871V20.8754H74.9498C75.0214 20.8611 75.0929 20.8325 75.1645 20.7895C75.2361 20.7466 75.3148 20.6786 75.4007 20.5855C75.4866 20.4925 75.5761 20.3636 75.6691 20.2026C75.7622 20.038 75.8552 19.8304 75.9483 19.5727C76.0414 19.315 76.1308 19.0037 76.2167 18.6315C76.3026 18.2628 76.3813 17.8191 76.4529 17.3073C76.5245 16.7955 76.5782 16.2085 76.614 15.5465C76.6498 14.8844 76.6677 14.1328 76.6677 13.2917H88.3098V23.42H85.1496V15.8292H85.1389Z" fill="white"/>
    <path d="M98.1911 18.0945L97.2069 16.5341H93.6208L95.736 13.2881H98.5561L105.159 23.4164H101.419L99.5189 20.4029H94.4977L92.6402 23.4164H89.158L92.6188 18.0981H98.1911V18.0945Z" fill="white"/>
    <path d="M106.226 13.2881H117.549V15.8291H109.665V23.4128H106.226V13.2881Z" fill="white"/>
    <path d="M119.042 23.4129V13.2847H133.186V23.4129H119.042ZM129.961 15.8293H122.27V20.8719H129.961V15.8293Z" fill="white"/>
    <path d="M134.682 20.8719H136.113C136.496 20.4317 136.818 19.9307 137.076 19.3759C137.333 18.8212 137.555 18.0518 137.749 17.0676C137.942 16.0834 138.039 14.8236 138.039 13.2847H149.298V20.8683H150.837V25.1845H147.737V23.4129H137.781V25.1845H134.682V20.8719ZM146.134 20.8719V15.8293H141.027C141.027 16.996 140.891 17.9515 140.622 18.6924C140.35 19.4332 139.939 20.1597 139.384 20.8719H146.134Z" fill="white"/>
    <path d="M160.618 18.0945L159.634 16.5341H156.044L158.159 13.2881H160.979L167.582 23.4164H163.842L161.942 20.4029H156.921L155.063 23.4164H151.581L155.042 18.0981H160.618V18.0945Z" fill="white"/>
    <path d="M83.5355 33.8201V33.0077H77.4264V38.0504H83.557V36.7262H86.9964V40.5914H73.9871V30.4631H86.9784V33.8166H83.5355V33.8201Z" fill="white"/>
    <path d="M97.9155 36.5544H92.5758V38.0504H101.677V40.5914H89.3512V30.4631H101.573V33.0041H92.5794V34.2854H97.9191V36.5544H97.9155Z" fill="white"/>
    <path d="M113.534 34.6541V33.0078H104.025V30.4668H114.046C114.887 30.4668 115.585 30.7531 116.139 31.3222C116.694 31.8912 116.973 32.5605 116.973 33.3299V34.2712C116.973 34.969 116.794 35.5238 116.44 35.9389C116.086 36.3505 115.667 36.6475 115.191 36.8265C114.715 37.0054 114.296 37.0949 113.942 37.0949H107.468V40.5986H104.028V34.6577H113.534V34.6541Z" fill="white"/>
    <path d="M118.573 30.4668H128.869C129.324 30.4668 129.76 30.5527 130.172 30.7245C130.584 30.8963 130.92 31.1647 131.178 31.5369C131.435 31.9091 131.561 32.3994 131.561 33.0114V33.8238C131.561 34.0672 131.514 34.2855 131.421 34.4859C131.328 34.6863 131.224 34.8581 131.113 34.9977C130.999 35.1408 130.848 35.284 130.666 35.4236C130.866 35.581 131.031 35.7349 131.156 35.8817C131.285 36.032 131.4 36.2145 131.496 36.4257C131.596 36.6404 131.647 36.8873 131.647 37.1736V38.0505C131.647 38.6052 131.511 39.074 131.242 39.4498C130.97 39.8292 130.63 40.1119 130.215 40.3052C129.803 40.4984 129.367 40.5951 128.912 40.5951H118.573V30.4668ZM128.189 34.2891V33.0078H121.694V34.2891H128.189ZM128.189 38.0505V36.5545H121.694V38.0505H128.189Z" fill="white"/>
    <path d="M136.84 36.8122L145.515 30.4668H148.013V40.5951H144.849V34.2282L136.174 40.5951H133.676V30.4668H136.84V36.8122Z" fill="white"/>
    <path d="M159.702 34.0349V33.0077H153.592V38.0504H159.723V36.5115H162.948V40.5914H150.364V30.4631H162.948V34.0313H159.702V34.0349Z" fill="white"/>
    <path d="M43.9761 24.8764C43.8775 24.7134 43.7808 24.5524 43.6802 24.3913C43.2293 23.6687 42.6577 23.0367 41.9854 22.457C40.9106 21.5312 39.6204 20.885 38.2456 20.4805C38.2275 20.4825 38.2074 20.4825 38.1893 20.4845C37.9578 22.5698 37.6539 24.647 37.2433 26.704C36.9111 28.3626 36.5146 30.0131 35.9953 31.6233C35.5243 33.0806 34.9607 34.5439 34.1194 35.8321C37.5834 39.3646 37.5834 39.3646 37.5834 39.3646C37.6156 39.3283 37.6478 39.2901 37.68 39.2539C37.839 39.0707 37.994 38.8835 38.145 38.6943C38.4046 38.3723 38.6583 38.0442 38.9038 37.7121C39.2319 37.2713 39.5499 36.8204 39.8559 36.3655C40.2202 35.8241 40.5684 35.2705 40.9005 34.7069C41.2689 34.083 41.6151 33.4449 41.9371 32.7948C42.2773 32.1044 42.5893 31.4019 42.865 30.6834C43.1468 29.9467 43.3904 29.1939 43.5836 28.429C43.7768 27.6601 43.9177 26.8772 43.9902 26.0861C44.0063 25.9009 44.0183 25.7258 44.0666 25.5467C44.117 25.3555 44.0425 25.1381 43.9942 24.9529C43.9922 24.9288 43.9841 24.9026 43.9761 24.8764Z" fill="#EC5D2B"/>
    <path d="M21.3865 24.1518C22.4452 23.9486 23.5019 23.7473 24.5607 23.544C25.1685 23.4272 25.7764 23.3186 26.3822 23.1958C26.5352 23.1636 26.7848 23.1595 26.9016 23.0569C27.3424 22.6624 27.1733 21.7767 27.2035 21.2434C27.2598 20.2309 27.3866 19.2185 27.5638 18.2201C28.3528 13.7759 30.3354 9.62949 32.7608 5.85347C32.7628 5.85146 32.7628 5.84945 32.7648 5.84743L35.2929 11.7007C35.2929 11.7007 39.4131 11.28 42.3156 13.6672C41.9956 13.4035 41.915 12.8319 41.7741 12.4615C41.5769 11.9362 41.3676 11.4169 41.1462 10.9036C39.4635 6.98668 37.1548 2.83226 33.5619 0.366575C33.421 0.26996 33.2801 0.177372 33.1372 0.0867955C33.0668 0.0425139 32.9883 -0.00378061 32.9037 0.000244994C32.8172 0.0042706 32.7427 0.058616 32.6743 0.108936C30.9936 1.37499 29.6068 2.89465 28.4715 4.66994C25.877 8.6875 23.7193 13.0472 22.4513 17.6726C22.4372 17.7209 22.4251 17.7693 22.413 17.8176C22.2137 18.5603 22.0406 19.307 21.9018 20.0639C21.8877 20.1403 21.8736 20.2148 21.8615 20.2913C21.6763 21.348 21.5354 22.4128 21.4408 23.4816C21.4207 23.701 21.4026 23.9264 21.3865 24.1518Z" fill="#EC5D2B"/>
    <path d="M49.6724 20.6557C46.5807 17.1776 42.384 14.6052 37.9397 13.2768C36.408 12.8178 34.8481 12.5481 33.2479 12.4958C32.6984 12.4777 32.155 12.52 31.6095 12.5542C30.738 13.9873 30.1824 15.513 29.8845 17.1997C29.8463 17.4171 29.8141 17.6385 29.7899 17.8619C30.1381 17.8478 30.428 17.8418 30.5206 17.8378C31.2794 17.8036 32.0322 17.8076 32.789 17.8519C38.1008 18.1538 43.2958 20.7906 45.7374 25.6857C45.838 25.889 45.836 25.9574 46.0091 26.048C48.3459 27.2456 50.4554 28.6385 52.6755 30.0092C52.7942 30.0816 52.921 30.1561 53.0619 30.1601C53.5551 30.1762 53.5148 29.4053 53.5068 29.0974C53.4544 27.1108 52.7459 25.1925 51.7476 23.4917C51.1538 22.4793 50.4513 21.5313 49.6724 20.6557Z" fill="#EC5D2B"/>
    <path d="M20.6337 52.4719C20.6337 52.4719 28.4937 48.9576 29.2122 48.1867C34.6025 48.1203 39.5339 47.6493 46.3693 36.6694C50.6586 41.0694 50.6586 41.0694 50.6586 41.0694C50.6586 41.0694 47.3315 48.7261 40.8986 51.7594C34.4656 54.7927 27.7912 55.0886 20.6337 52.4719Z" fill="#EC5D2B"/>
    <path d="M35.8826 25.0234C35.8665 24.9349 35.8444 24.8463 35.8202 24.7598C35.8021 24.6974 35.788 24.6168 35.7538 24.5625C35.7035 24.48 35.5646 24.482 35.4861 24.4719C33.7511 24.2364 31.9778 24.1801 30.2287 24.2626C26.7546 24.4256 23.2905 25.1764 20.1727 26.5874C20.1304 26.6075 20.0902 26.6317 20.0499 26.6619C19.8064 28.0104 19.6071 29.3731 19.4783 30.7317C19.4541 30.9894 19.436 31.249 19.428 31.5067C20.8168 30.7337 22.5015 30.4499 24.0796 30.1581C26.1085 29.7837 28.1635 29.5341 30.2307 29.4093C30.5869 29.3872 30.9472 29.4073 31.3035 29.4133C31.9214 29.4214 32.5414 29.4295 33.1593 29.4254C33.2579 29.4254 33.3566 29.4234 33.4552 29.4234C33.8034 29.4194 34.1536 29.3932 34.5019 29.4093C34.5965 29.4133 34.679 29.4113 34.7555 29.3469C34.8662 29.2543 34.9487 29.1114 35.0292 28.9927C35.3875 28.4613 35.6512 27.8635 35.8041 27.2355C35.9571 26.6115 36.0034 25.9614 35.9309 25.3213C35.9168 25.2247 35.9007 25.1241 35.8826 25.0234Z" fill="#EC5D2B"/>
    <path d="M36.3275 45.544C37.0299 45.1092 37.6217 44.5456 38.1571 43.9176C38.2577 43.7989 38.3544 43.6781 38.451 43.5553C34.844 40.208 28.7694 31.251 28.1676 30.3594C27.9643 30.3795 27.761 30.4037 27.5597 30.4339L25.2893 31.0316C25.0216 31.1303 24.7579 31.2329 24.4982 31.3436C23.9246 31.5872 23.4033 31.9092 22.8739 32.2232C24.1621 35.494 30.8848 44.139 32.9218 46.7174C34.1094 46.5342 35.2949 46.182 36.3275 45.544Z" fill="#EC5D2B"/>
    <path d="M44.8899 27.3826C44.8899 27.3826 44.2338 31.2693 43.3441 32.5796C46.8565 34.4998 54.2052 39.5077 56.687 47.1402C49.4771 47.5146 49.4771 47.5146 49.4771 47.5146C49.4771 47.5146 45.834 50.886 44.0506 52.1964C48.9618 52.8526 56.5944 53.1323 63.7096 50.6043C62.1175 46.3432 59.9638 35.4358 46.9953 28.7412C44.89 27.3826 44.8899 27.3826 44.8899 27.3826Z" fill="#EC5D2B"/>
    <path d="M10.1027 32.5796C10.1027 32.5796 10.0081 35.9027 10.618 38.9239C6.91845 45.9708 6.91845 45.9708 6.91845 45.9708C6.91845 45.9708 12.5362 47.6092 28.1032 42.3195C30.5608 45.8782 30.5608 45.8782 30.5608 45.8782C30.5608 45.8782 13.5184 55.7107 0.0829841 49.5294C-0.852969 48.6377 6.35889 35.6692 10.1027 32.5796Z" fill="#EC5D2B"/>
    <path d="M19.3576 41.6654C18.6551 40.5402 18.1519 38.9883 17.9365 38.3986C16.4269 34.2663 17.2039 29.5725 19.4924 25.8749C19.5729 25.7441 19.6937 25.6113 19.7541 25.4704C19.8024 25.3597 19.7883 25.2167 19.7964 25.092C19.8145 24.79 19.8366 24.4901 19.8608 24.1902C19.9856 22.6846 20.1868 21.1871 20.4646 19.7037C20.6035 18.961 20.7605 18.2223 20.9376 17.4896C21.0262 17.1233 21.1188 16.7569 21.2174 16.3926C21.2496 16.2759 21.3241 16.1028 21.2778 15.98C21.2597 15.9297 21.2456 15.9096 21.1932 15.8995C21.1288 15.8854 21.002 15.972 20.9517 15.9941C20.8249 16.0464 20.6941 16.0947 20.5753 16.1632C20.0278 16.4772 19.5025 16.8214 18.9751 17.1635C14.2028 20.2632 11.9786 26.1487 11.6405 31.6275C11.5861 32.5091 11.572 33.4028 11.5982 34.2864C11.6284 35.3311 11.7371 36.3737 11.9344 37.4023C12.1276 38.4066 12.4053 39.3969 12.7717 40.353L15.018 44.9402C15.018 44.9402 18.5907 43.7587 20.3237 43.185C20.2855 43.1347 20.2472 43.0844 20.209 43.0341C19.897 42.6013 19.6112 42.1424 19.3576 41.6654Z" fill="#EC5D2B"/>
</svg>
