<svg width="20" height="20" viewBox="0 0 20 20" fill="none" xmlns="http://www.w3.org/2000/svg">
    <path d="M15.62 8.75224C15.4158 8.75224 15.2199 8.67112 15.0755 8.52672C14.9311 8.38231 14.85 8.18646 14.85 7.98224C14.85 7.61224 14.48 6.84224 13.86 6.17224C13.25 5.52224 12.58 5.14224 12.02 5.14224C11.8158 5.14224 11.6199 5.06112 11.4755 4.91672C11.3311 4.77231 11.25 4.57646 11.25 4.37224C11.25 3.95224 11.6 3.60224 12.02 3.60224C13.02 3.60224 14.07 4.14224 14.99 5.11224C15.85 6.02224 16.4 7.15224 16.4 7.97224C16.4 8.40224 16.05 8.75224 15.62 8.75224ZM19.23 8.75024C19.0258 8.75024 18.8299 8.66912 18.6855 8.52472C18.5411 8.38031 18.46 8.18446 18.46 7.98024C18.46 4.43024 15.57 1.55024 12.03 1.55024C11.8258 1.55024 11.6299 1.46912 11.4855 1.32472C11.3411 1.18031 11.26 0.984461 11.26 0.780244C11.26 0.360244 11.6 0.000244141 12.02 0.000244141C16.42 0.000244141 20 3.58024 20 7.98024C20 8.40024 19.65 8.75024 19.23 8.75024ZM9.05 12.9502L7.2 14.8002C6.81 15.1902 6.19 15.1902 5.79 14.8102C5.68 14.7002 5.57 14.6002 5.46 14.4902C4.44877 13.4723 3.5161 12.3791 2.67 11.2202C1.85 10.0802 1.19 8.94024 0.71 7.81024C0.24 6.67024 0 5.58024 0 4.54024C0 3.86024 0.12 3.21024 0.36 2.61024C0.6 2.00024 0.98 1.44024 1.51 0.940244C2.15 0.310244 2.85 0.000244141 3.59 0.000244141C3.87 0.000244141 4.15 0.0602442 4.4 0.180244C4.66 0.300244 4.89 0.480244 5.07 0.740244L7.39 4.01024C7.57 4.26024 7.7 4.49024 7.79 4.71024C7.88 4.92024 7.93 5.13024 7.93 5.32024C7.93 5.56024 7.86 5.80024 7.72 6.03024C7.59 6.26024 7.4 6.50024 7.16 6.74024L6.4 7.53024C6.29 7.64024 6.24 7.77024 6.24 7.93024C6.24 8.01024 6.25 8.08024 6.27 8.16024C6.3 8.24024 6.33 8.30024 6.35 8.36024C6.53 8.69024 6.84 9.12024 7.28 9.64024C7.73 10.1602 8.21 10.6902 8.73 11.2202C8.83 11.3202 8.94 11.4202 9.04 11.5202C9.44 11.9102 9.45 12.5502 9.05 12.9502ZM19.97 16.3302C19.9687 16.7076 19.8833 17.08 19.72 17.4202C19.55 17.7802 19.33 18.1202 19.04 18.4402C18.55 18.9802 18.01 19.3702 17.4 19.6202C17.39 19.6202 17.38 19.6302 17.37 19.6302C16.78 19.8702 16.14 20.0002 15.45 20.0002C14.43 20.0002 13.34 19.7602 12.19 19.2702C11.04 18.7802 9.89 18.1202 8.75 17.2902C8.36 17.0002 7.97 16.7102 7.6 16.4002L10.87 13.1302C11.15 13.3402 11.4 13.5002 11.61 13.6102C11.66 13.6302 11.72 13.6602 11.79 13.6902C11.87 13.7202 11.95 13.7302 12.04 13.7302C12.21 13.7302 12.34 13.6702 12.45 13.5602L13.21 12.8102C13.46 12.5602 13.7 12.3702 13.93 12.2502C14.16 12.1102 14.39 12.0402 14.64 12.0402C14.83 12.0402 15.03 12.0802 15.25 12.1702C15.47 12.2602 15.7 12.3902 15.95 12.5602L19.26 14.9102C19.52 15.0902 19.7 15.3002 19.81 15.5502C19.91 15.8002 19.97 16.0502 19.97 16.3302Z" fill="#EC5D2B"/>
</svg>
