<svg width="36" height="36" viewBox="0 0 36 36" fill="none" xmlns="http://www.w3.org/2000/svg">
    <circle cx="18" cy="18" r="18" fill="#FBDFD5"/>
    <path d="M24.939 10.4892C24.939 10.4892 26.6872 9.80741 26.541 11.463C26.4928 12.1447 26.0559 14.5311 25.7157 17.1118L24.5502 24.7573C24.5502 24.7573 24.453 25.8774 23.5786 26.0722C22.7047 26.2666 21.3934 25.3905 21.1504 25.1956C20.956 25.0494 17.5081 22.8579 16.294 21.7869C15.9538 21.4944 15.565 20.9103 16.3426 20.2285L21.4416 15.3586C22.0243 14.7745 22.6071 13.411 20.1789 15.0666L13.3794 19.6926C13.3794 19.6926 12.6022 20.1799 11.1456 19.7416L7.9884 18.7674C7.9884 18.7674 6.8229 18.037 8.81415 17.3067C13.671 15.018 19.6447 12.6807 24.9381 10.4892H24.939Z" fill="#EC5D2B"/>
</svg>
