<svg width="36" height="36" viewBox="0 0 36 36" fill="none" xmlns="http://www.w3.org/2000/svg">
    <circle cx="18" cy="18" r="18" fill="#FBDFD5"/>
    <path d="M14.3012 12.6851C14.1309 12.6603 13.9571 12.6946 13.809 12.7823H13.7962C13.4524 12.9839 13.1426 13.2378 12.8786 13.5367C12.6586 13.7906 12.5394 14.0473 12.5082 14.2948C12.4899 14.4414 12.5027 14.5899 12.5458 14.7302L12.5623 14.7393C12.8098 15.4663 13.1325 16.1657 13.5267 16.8238C14.0349 17.7483 14.6603 18.6033 15.3875 19.3676L15.4095 19.3988L15.4443 19.4244L15.4654 19.4492L15.4911 19.4712C16.2581 20.2005 17.1151 20.8289 18.0412 21.3412C19.1 21.9178 19.7426 22.19 20.1285 22.3037V22.3092C20.2412 22.344 20.3439 22.3596 20.4475 22.3596C20.7761 22.3353 21.0872 22.2017 21.3312 21.9801C21.6291 21.7161 21.8812 21.4053 22.0773 21.0598V21.0533C22.2616 20.705 22.1992 20.3768 21.9334 20.1541C21.3994 19.6875 20.8221 19.2731 20.2092 18.9166C19.7985 18.6938 19.3814 18.8286 19.2127 19.0541L18.8525 19.5088C18.6673 19.7343 18.3318 19.7031 18.3318 19.7031L18.3227 19.7086C15.8192 19.0697 15.151 16.5351 15.151 16.5351C15.151 16.5351 15.1198 16.1904 15.3517 16.0144L15.8027 15.6514C16.0191 15.4754 16.1694 15.0593 15.9375 14.6486C15.5833 14.0351 15.1697 13.4579 14.7027 12.9253C14.6009 12.7999 14.458 12.7145 14.2994 12.6842L14.3012 12.6851ZM18.5317 11.5833C18.4101 11.5833 18.2935 11.6315 18.2076 11.7175C18.1216 11.8034 18.0733 11.92 18.0733 12.0416C18.0733 12.1631 18.1216 12.2797 18.2076 12.3657C18.2935 12.4516 18.4101 12.4999 18.5317 12.4999C19.6903 12.4999 20.6528 12.8785 21.4146 13.6045C21.806 14.0014 22.1112 14.4717 22.3111 14.9868C22.5118 15.5029 22.6035 16.0538 22.5797 16.6057C22.5745 16.7272 22.6179 16.8458 22.7003 16.9354C22.7826 17.025 22.8972 17.0781 23.0187 17.0833C23.1403 17.0884 23.2589 17.045 23.3485 16.9626C23.438 16.8803 23.4912 16.7657 23.4963 16.6442C23.5248 15.9654 23.4121 15.288 23.1654 14.655C22.9177 14.019 22.542 13.4405 22.0617 12.9555L22.0526 12.9463C21.1075 12.0434 19.9122 11.5833 18.5317 11.5833Z" fill="#EC5D2B"/>
    <path d="M18.4996 13.0903C18.378 13.0903 18.2615 13.1386 18.1755 13.2245C18.0895 13.3105 18.0413 13.427 18.0413 13.5486C18.0413 13.6702 18.0895 13.7867 18.1755 13.8727C18.2615 13.9587 18.378 14.0069 18.4996 14.0069H18.5152C19.3512 14.0665 19.9598 14.3452 20.3861 14.8026C20.8233 15.2738 21.0498 15.8595 21.0323 16.5837C21.0295 16.7052 21.0752 16.8229 21.1591 16.9109C21.2431 16.9988 21.3586 17.0498 21.4801 17.0526C21.6017 17.0554 21.7194 17.0098 21.8073 16.9258C21.8952 16.8418 21.9462 16.7263 21.949 16.6048C21.971 15.6542 21.6648 14.8338 21.058 14.1793V14.1774C20.4374 13.5119 19.5858 13.1599 18.561 13.0912L18.5454 13.0894L18.4996 13.0903Z" fill="#EC5D2B"/>
    <path d="M18.4821 14.6258C18.4208 14.6204 18.359 14.6274 18.3004 14.6464C18.2419 14.6654 18.1877 14.696 18.1412 14.7364C18.0948 14.7768 18.0569 14.8261 18.0299 14.8815C18.0029 14.9368 17.9873 14.997 17.9841 15.0585C17.9809 15.12 17.9902 15.1815 18.0112 15.2394C18.0323 15.2972 18.0649 15.3502 18.1069 15.3952C18.1489 15.4402 18.1996 15.4763 18.2559 15.5013C18.3122 15.5263 18.3729 15.5396 18.4345 15.5406C18.8176 15.5608 19.0624 15.6763 19.2164 15.8312C19.3713 15.987 19.4868 16.2373 19.5079 16.6287C19.509 16.6902 19.5225 16.7509 19.5476 16.807C19.5727 16.8632 19.6088 16.9138 19.6539 16.9557C19.6989 16.9976 19.7519 17.03 19.8097 17.051C19.8676 17.072 19.929 17.0811 19.9904 17.0779C20.0519 17.0746 20.112 17.059 20.1673 17.032C20.2226 17.005 20.2719 16.9672 20.3122 16.9207C20.3525 16.8743 20.3831 16.8202 20.4021 16.7617C20.4211 16.7032 20.4281 16.6414 20.4227 16.5801C20.3934 16.0301 20.2211 15.5443 19.8681 15.1868C19.5134 14.8293 19.0303 14.6551 18.4821 14.6258Z" fill="#EC5D2B"/>
    <path fill-rule="evenodd" clip-rule="evenodd" d="M13.478 9.18531C16.3949 8.53328 19.4198 8.53328 22.3367 9.18531L22.6474 9.25406C23.5001 9.44468 24.2833 9.86797 24.9098 10.4769C25.5364 11.0858 25.9819 11.8566 26.1968 12.7035C26.9372 15.6211 26.9372 18.6775 26.1968 21.5951C25.9819 22.442 25.5364 23.2128 24.9098 23.8217C24.2833 24.4306 23.5001 24.8539 22.6474 25.0446L22.3358 25.1133C20.5089 25.5218 18.6343 25.6758 16.7652 25.5707L14.3333 27.7469C14.2416 27.829 14.1296 27.8849 14.0089 27.909C13.8882 27.933 13.7632 27.9242 13.6471 27.8834C13.531 27.8427 13.4279 27.7715 13.3487 27.6774C13.2694 27.5832 13.2169 27.4695 13.1966 27.3481L12.7942 24.9446C12.0225 24.7045 11.3253 24.2705 10.7693 23.6841C10.2132 23.0977 9.81677 22.3785 9.61795 21.5951C8.87751 18.6775 8.87751 15.6211 9.61795 12.7035C9.83283 11.8566 10.2783 11.0858 10.9049 10.4769C11.5315 9.86797 12.3146 9.44468 13.1673 9.25406L13.478 9.18531ZM22.0369 10.5264C19.3175 9.91846 16.4973 9.91846 13.7778 10.5264L13.4661 10.5961C12.8618 10.7314 12.3068 11.0316 11.8627 11.4633C11.4187 11.8951 11.103 12.4414 10.9508 13.0417C10.2667 15.7374 10.2667 18.5612 10.9508 21.2569C11.1031 21.8573 11.4189 22.4037 11.8631 22.8355C12.3073 23.2672 12.8625 23.5674 13.467 23.7026L13.5495 23.7209C13.683 23.7507 13.8045 23.8197 13.8986 23.919C13.9926 24.0183 14.0549 24.1433 14.0775 24.2782L14.347 25.8897L16.063 24.3543C16.1316 24.2928 16.2117 24.2457 16.2988 24.2158C16.3859 24.1859 16.4781 24.1737 16.5699 24.1801C18.4024 24.3101 20.2441 24.1727 22.0369 23.7722L22.3477 23.7026C22.9522 23.5674 23.5074 23.2672 23.9516 22.8355C24.3958 22.4037 24.7116 21.8573 24.8639 21.2569C25.5478 18.5619 25.5478 15.7376 24.8639 13.0417C24.7116 12.4413 24.3958 11.8949 23.9516 11.4631C23.5074 11.0314 22.9522 10.7313 22.3477 10.5961L22.0369 10.5264Z" fill="#EC5D2B"/>
</svg>
