<svg width="36" height="36" viewBox="0 0 36 36" fill="none" xmlns="http://www.w3.org/2000/svg">
    <circle cx="18" cy="18" r="18" fill="#EC5D2B" fill-opacity="0.2"/>
    <path d="M28.2891 13.5977C28.4336 13.1094 28.2891 12.75 27.5938 12.75H25.293C24.707 12.75 24.4375 13.0586 24.293 13.4023C24.293 13.4023 23.1211 16.2578 21.4648 18.1094C20.9297 18.6445 20.6836 18.8164 20.3906 18.8164C20.2461 18.8164 20.0234 18.6445 20.0234 18.1562V13.5977C20.0234 13.0117 19.8594 12.75 19.375 12.75H15.7578C15.3906 12.75 15.1719 13.0234 15.1719 13.2773C15.1719 13.832 16 13.9609 16.0859 15.5234V18.9141C16.0859 19.6563 15.9531 19.793 15.6602 19.793C14.8789 19.793 12.9805 16.9258 11.8555 13.6445C11.6289 13.0078 11.4062 12.75 10.8164 12.75H8.51562C7.85937 12.75 7.72656 13.0586 7.72656 13.4023C7.72656 14.0117 8.50781 17.0391 11.3633 21.0391C13.2656 23.7695 15.9453 25.25 18.3828 25.25C19.8477 25.25 20.0273 24.9219 20.0273 24.3555C20.0273 21.7461 19.8945 21.5 20.6289 21.5C20.9687 21.5 21.5547 21.6719 22.9219 22.9883C24.4844 24.5508 24.7422 25.25 25.6172 25.25H27.918C28.5742 25.25 28.9063 24.9219 28.7148 24.2734C28.2773 22.9102 25.3203 20.1055 25.1875 19.918C24.8477 19.4805 24.9453 19.2852 25.1875 18.8945C25.1914 18.8906 28 14.9375 28.2891 13.5977Z" fill="#EC5D2B"/>
</svg>
