<svg width="36" height="36" viewBox="0 0 36 36" fill="none" xmlns="http://www.w3.org/2000/svg">
    <circle cx="18" cy="18" r="18" fill="#EC5D2B" fill-opacity="0.2"/>
    <path d="M18.0007 9.00024C22.9714 9.00024 27.0007 13.0295 27.0007 18.0002C27.0007 22.9709 22.9714 27.0002 18.0007 27.0002C16.4102 27.0028 14.8477 26.5819 13.4737 25.7807L9.00435 27.0002L10.2211 22.529C9.41933 21.1546 8.99809 19.5914 9.00074 18.0002C9.00074 13.0295 13.03 9.00024 18.0007 9.00024ZM14.9335 13.7702L14.7535 13.7774C14.637 13.7845 14.5231 13.8152 14.4187 13.8674C14.3211 13.9227 14.232 13.9918 14.1541 14.0726C14.0461 14.1743 13.9849 14.2625 13.9192 14.348C13.5864 14.7809 13.4071 15.3122 13.4098 15.8582C13.4116 16.2992 13.5268 16.7285 13.7068 17.1299C14.0749 17.9417 14.6806 18.8012 15.4798 19.5977C15.6724 19.7894 15.8614 19.982 16.0648 20.1611C17.0579 21.0355 18.2413 21.666 19.5208 22.0025L20.032 22.0808C20.1985 22.0898 20.365 22.0772 20.5324 22.0691C20.7946 22.0556 21.0505 21.9846 21.2821 21.8612C21.4 21.8005 21.515 21.7345 21.6268 21.6632C21.6268 21.6632 21.6655 21.638 21.7393 21.5822C21.8608 21.4922 21.9355 21.4283 22.0363 21.323C22.111 21.2456 22.1758 21.1547 22.2253 21.0512C22.2955 20.9045 22.3657 20.6246 22.3945 20.3915C22.4161 20.2133 22.4098 20.1161 22.4071 20.0558C22.4035 19.9595 22.3234 19.8596 22.2361 19.8173L21.7123 19.5824C21.7123 19.5824 20.9293 19.2413 20.4505 19.0235C20.4004 19.0017 20.3468 18.9892 20.2921 18.9866C20.2306 18.9803 20.1684 18.9872 20.1097 19.007C20.051 19.0267 19.9972 19.0587 19.9519 19.1009C19.9474 19.0991 19.8871 19.1504 19.2364 19.9388C19.1991 19.989 19.1477 20.027 19.0887 20.0478C19.0297 20.0686 18.9658 20.0714 18.9052 20.0558C18.8466 20.0401 18.7892 20.0203 18.7333 19.9964C18.6217 19.9496 18.583 19.9316 18.5065 19.8992C17.99 19.6738 17.5118 19.3693 17.089 18.9965C16.9756 18.8975 16.8703 18.7895 16.7623 18.6851C16.4083 18.3461 16.0997 17.9625 15.8443 17.5439L15.7912 17.4584C15.7531 17.401 15.7223 17.339 15.6994 17.2739C15.6652 17.1416 15.7543 17.0354 15.7543 17.0354C15.7543 17.0354 15.973 16.796 16.0747 16.6664C16.1737 16.5404 16.2574 16.418 16.3114 16.3307C16.4176 16.1597 16.4509 15.9842 16.3951 15.8483C16.1431 15.2327 15.8821 14.6198 15.6139 14.0114C15.5608 13.8908 15.4033 13.8044 15.2602 13.7873C15.2116 13.7819 15.163 13.7765 15.1144 13.7729C14.9936 13.7669 14.8725 13.7681 14.7517 13.7765L14.9326 13.7693L14.9335 13.7702Z" fill="#EC5D2B"/>
</svg>
