<svg width="36" height="36" viewBox="0 0 36 36" fill="none" xmlns="http://www.w3.org/2000/svg">
    <circle cx="18" cy="18" r="18" fill="#FBDFD5"/>
    <path d="M18.0009 9.00024C22.9716 9.00024 27.0009 13.0295 27.0009 18.0002C27.0009 22.9709 22.9716 27.0002 18.0009 27.0002C16.4104 27.0028 14.8479 26.5819 13.4739 25.7807L9.00447 27.0002L10.2213 22.529C9.41945 21.1546 8.99821 19.5914 9.00087 18.0002C9.00087 13.0295 13.0302 9.00024 18.0009 9.00024ZM14.9337 13.7702L14.7537 13.7774C14.6371 13.7845 14.5232 13.8152 14.4189 13.8674C14.3212 13.9227 14.2321 13.9918 14.1543 14.0726C14.0463 14.1743 13.9851 14.2625 13.9194 14.348C13.5865 14.7809 13.4072 15.3122 13.41 15.8582C13.4118 16.2992 13.527 16.7285 13.707 17.1299C14.0751 17.9417 14.6808 18.8012 15.48 19.5977C15.6726 19.7894 15.8616 19.982 16.065 20.1611C17.058 21.0355 18.2414 21.666 19.521 22.0025L20.0322 22.0808C20.1987 22.0898 20.3652 22.0772 20.5326 22.0691C20.7947 22.0556 21.0506 21.9846 21.2823 21.8612C21.4001 21.8005 21.5151 21.7345 21.627 21.6632C21.627 21.6632 21.6657 21.638 21.7395 21.5822C21.861 21.4922 21.9357 21.4283 22.0365 21.323C22.1112 21.2456 22.176 21.1547 22.2255 21.0512C22.2957 20.9045 22.3659 20.6246 22.3947 20.3915C22.4163 20.2133 22.41 20.1161 22.4073 20.0558C22.4037 19.9595 22.3236 19.8596 22.2363 19.8173L21.7125 19.5824C21.7125 19.5824 20.9295 19.2413 20.4507 19.0235C20.4006 19.0017 20.3469 18.9892 20.2923 18.9866C20.2307 18.9803 20.1685 18.9872 20.1098 19.007C20.0511 19.0267 19.9973 19.0587 19.9521 19.1009C19.9476 19.0991 19.8873 19.1504 19.2366 19.9388C19.1992 19.989 19.1478 20.027 19.0888 20.0478C19.0298 20.0686 18.966 20.0714 18.9054 20.0558C18.8467 20.0401 18.7893 20.0203 18.7335 19.9964C18.6219 19.9496 18.5832 19.9316 18.5067 19.8992C17.9901 19.6738 17.5119 19.3693 17.0892 18.9965C16.9758 18.8975 16.8705 18.7895 16.7625 18.6851C16.4084 18.3461 16.0998 17.9625 15.8445 17.5439L15.7914 17.4584C15.7532 17.401 15.7224 17.339 15.6996 17.2739C15.6654 17.1416 15.7545 17.0354 15.7545 17.0354C15.7545 17.0354 15.9732 16.796 16.0749 16.6664C16.1739 16.5404 16.2576 16.418 16.3116 16.3307C16.4178 16.1597 16.4511 15.9842 16.3953 15.8483C16.1433 15.2327 15.8823 14.6198 15.6141 14.0114C15.561 13.8908 15.4035 13.8044 15.2604 13.7873C15.2118 13.7819 15.1632 13.7765 15.1146 13.7729C14.9937 13.7669 14.8726 13.7681 14.7519 13.7765L14.9328 13.7693L14.9337 13.7702Z" fill="#EC5D2B"/>
</svg>
